# xmcd
#
# Track frame offsets: 
#        182
#        13357
#        29332
#        43877
#        60282
#        75382
#        88810
#        105557
#        118807
#        134737
#        150845
#        164032
#        178932
#        198470
#        221407
#
# Disc length: 3157 seconds
#
# Revision: 7
# Processed by: cddbd v1.5.2PL0 Copyright (c) Steve Scherf et al.
# Submitted via: ExactAudioCopyFreeDBPlugin 1.0
#
DISCID=d10c530f
DTITLE=Truck Stop - 25 Jahre Truck Stop On Tour
DYEAR=1999
DGENRE=Deutsch Country
TTITLE0=Uns're Herzen (schlagen für den Wilden Westen)
TTITLE1=California
TTITLE2=Pack dein herz in einen Koffer
TTITLE3=Freunde findest du tief unten
TTITLE4=Echte Kerle
TTITLE5=Der wilde Wilde Westen (Neuaufnahme)
TTITLE6=Alabama Moon
TTITLE7=Take it easy altes Haus
TTITLE8=Gegen den Wind
TTITLE9=Ich möcht' so gern Dave Dudley hör'n (Neuaufnahme)
TTITLE10=Tief im Herzen (immer Cowboy)
TTITLE11=Emmylou, Emmylou
TTITLE12=Wohin der Wind dich treibt
TTITLE13=Superhits Medley (Old Texas Town, Frau mit Gurt...)
TTITLE14=Maschen-Draht-Zaun (German Version)
EXTD=YEAR: 1999
EXTT0=
EXTT1=
EXTT2=
EXTT3=
EXTT4=
EXTT5=
EXTT6=
EXTT7=
EXTT8=
EXTT9=
EXTT10=
EXTT11=
EXTT12=
EXTT13=
EXTT14=
PLAYORDER=
